<?xml version="1.0" encoding="utf-8"?>
<!-- Generator: Adobe Illustrator 19.0.1, SVG Export Plug-In . SVG Version: 6.00 Build 0)  -->
<svg version="1.1" id="Layer_1" xmlns="http://www.w3.org/2000/svg" xmlns:xlink="http://www.w3.org/1999/xlink" x="0px" y="0px"
	 viewBox="-92 183.6 426.4 447.1" style="enable-background:new -92 183.6 426.4 447.1;" xml:space="preserve">
<style type="text/css">
	.st0{display:none;}
	.st1{display:inline;fill:#C69C6D;stroke:#C69C6D;stroke-width:5;stroke-miterlimit:10;}
	.st2{display:inline;fill:none;stroke:#CCCCCC;stroke-width:4;stroke-miterlimit:10;}
	.st3{display:inline;fill:none;stroke:#F2F2F2;stroke-width:5;stroke-miterlimit:10;}
	.st4{display:inline;fill:none;stroke:#000000;stroke-width:7;stroke-miterlimit:10;}
	.st5{display:inline;fill:none;stroke:#000000;stroke-miterlimit:10;}
	.st6{display:inline;opacity:0.5;fill:none;stroke:#808080;stroke-width:42;stroke-miterlimit:10;enable-background:new    ;}
	.st7{fill:none;stroke:#B3B3B3;stroke-width:120;stroke-miterlimit:10;}
	.st8{fill:#E6E6E6;stroke:#000000;stroke-miterlimit:10;}
	.st9{fill:none;stroke:#000000;stroke-miterlimit:10;}
	.st10{display:inline;opacity:0.5;fill:none;stroke:#808080;stroke-width:42.5;stroke-miterlimit:10;enable-background:new    ;}
	.st11{display:inline;fill:none;stroke:#666666;stroke-width:15;stroke-miterlimit:10;}
	.st12{display:inline;fill:none;stroke:#666666;stroke-width:41;stroke-miterlimit:10;}
</style>
<g id="Layer_1_1_" class="st0">
	<rect x="-92" y="183.6" class="st1" width="426.4" height="426.4"/>
</g>
<g id="right_side" class="st0">
	<line id="far_most" class="st2" x1="76.7" y1="163.7" x2="286.6" y2="626.9"/>
	<line id="right_white" class="st3" x1="75.7" y1="173.7" x2="285.6" y2="636.9"/>
	<line class="st4" x1="123.7" y1="162.7" x2="333.6" y2="625.9"/>
	<line class="st5" x1="73.7" y1="162.7" x2="283.6" y2="625.9"/>
	<line class="st5" x1="78.7" y1="162.7" x2="288.6" y2="625.9"/>
	<line class="st5" x1="67.7" y1="162.7" x2="277.6" y2="625.9"/>
	<line id="glass_1_" class="st6" x1="96.7" y1="162.7" x2="306.6" y2="625.9"/>
</g>
<g id="steps">
	<line id="backcolor" class="st7" x1="4.7" y1="169.7" x2="222.9" y2="651.4"/>
	<rect x="-81.3" y="172.4" class="st8" width="152.6" height="10.3"/>
	<rect x="-72.7" y="186.4" class="st8" width="150.1" height="10.3"/>
	<rect x="-69.7" y="200.4" class="st8" width="153.5" height="10.3"/>
	<rect x="-59.6" y="214.4" class="st8" width="149.9" height="10.3"/>
	<rect x="-57.3" y="228.4" class="st8" width="154" height="10.3"/>
	<rect x="-48.3" y="242.4" class="st8" width="151.3" height="10.3"/>
	<rect x="-42.3" y="256.4" class="st8" width="151.8" height="10.3"/>
	<rect x="-37.3" y="270.4" class="st8" width="153.3" height="10.3"/>
	<rect x="-26.1" y="284.4" class="st8" width="148.2" height="10.3"/>
	<rect x="-22.9" y="298.4" class="st8" width="151.5" height="10.3"/>
	<rect x="-19.3" y="312.4" class="st8" width="154.6" height="10.3"/>
	<rect x="-10.9" y="326.4" class="st8" width="152.4" height="10.3"/>
	<rect x="-5" y="340.4" class="st8" width="152.6" height="10.3"/>
	<rect x="1.3" y="354.4" class="st8" width="152.6" height="10.3"/>
	<rect x="17.8" y="368.4" class="st8" width="142.7" height="10.3"/>
	<rect x="17.8" y="382.4" class="st8" width="148.8" height="10.3"/>
	<rect x="17.8" y="396.4" class="st8" width="154.9" height="10.3"/>
	<rect x="23.6" y="410.4" class="st8" width="156.1" height="10.3"/>
	<rect x="31.1" y="424.4" class="st8" width="154.8" height="10.3"/>
	<rect x="39.3" y="438.4" class="st8" width="152.4" height="10.3"/>
	<rect x="43.8" y="452.4" class="st8" width="154.8" height="10.3"/>
	<rect x="56.4" y="466.4" class="st8" width="148.4" height="10.3"/>
	<rect x="62.8" y="480.4" class="st8" width="148.5" height="10.3"/>
	<rect x="62.6" y="494.4" class="st8" width="155" height="10.3"/>
	<rect x="75.5" y="508.4" class="st8" width="148.5" height="10.3"/>
	<rect x="74.4" y="522.4" class="st8" width="155.9" height="10.3"/>
	<rect x="80.4" y="536.4" class="st8" width="156.3" height="10.3"/>
	<rect x="89.1" y="550.4" class="st8" width="153.9" height="10.3"/>
	<rect x="96.7" y="564.4" class="st8" width="152.6" height="10.3"/>
	<rect x="100.1" y="578.4" class="st8" width="155.7" height="10.3"/>
	<rect x="108.4" y="592.4" class="st8" width="153.6" height="10.3"/>
	<rect x="115.5" y="606.4" class="st8" width="153" height="10.3"/>
	<rect x="117.8" y="620.4" class="st8" width="156.8" height="10.3"/>
	<line class="st9" x1="71.3" y1="182.7" x2="77.4" y2="186.4"/>
	<line class="st9" x1="77.4" y1="196.7" x2="83.9" y2="200.4"/>
	<line class="st9" x1="83.9" y1="210.7" x2="90.3" y2="214.4"/>
	<line class="st9" x1="90.3" y1="224.7" x2="96.7" y2="228.4"/>
	<line class="st9" x1="96.7" y1="238.7" x2="102.9" y2="242.4"/>
	<line class="st9" x1="102.9" y1="252.7" x2="109.4" y2="256.4"/>
	<line class="st9" x1="109.4" y1="266.7" x2="116" y2="270.4"/>
	<line class="st9" x1="116" y1="280.7" x2="122.1" y2="284.4"/>
	<line class="st9" x1="122.1" y1="294.7" x2="128.6" y2="298.4"/>
	<line class="st9" x1="128.6" y1="308.7" x2="135.3" y2="312.4"/>
	<line class="st9" x1="135.3" y1="322.7" x2="141.6" y2="326.4"/>
	<line class="st9" x1="141.6" y1="336.7" x2="147.5" y2="340.4"/>
	<line class="st9" x1="153.9" y1="364.7" x2="160.4" y2="368.4"/>
	<line class="st9" x1="147.5" y1="350.7" x2="153.9" y2="354.4"/>
	<line class="st9" x1="160.4" y1="378.7" x2="166.5" y2="382.4"/>
	<line class="st9" x1="166.5" y1="392.7" x2="172.6" y2="396.4"/>
	<line class="st9" x1="172.6" y1="406.7" x2="179.7" y2="410.4"/>
	<line class="st9" x1="179.7" y1="420.7" x2="185.8" y2="424.4"/>
	<line class="st9" x1="185.8" y1="434.7" x2="191.7" y2="438.4"/>
	<line class="st9" x1="191.7" y1="448.7" x2="198.5" y2="452.4"/>
	<line class="st9" x1="198.5" y1="462.7" x2="204.8" y2="466.4"/>
	<line class="st9" x1="204.8" y1="476.7" x2="211.2" y2="480.4"/>
	<line class="st9" x1="211.2" y1="490.7" x2="217.6" y2="494.4"/>
	<line class="st9" x1="217.6" y1="504.7" x2="224.3" y2="508.4"/>
	<line class="st9" x1="223.9" y1="518.7" x2="230.3" y2="522.4"/>
	<line class="st9" x1="230.3" y1="532.7" x2="236.7" y2="536.4"/>
	<line class="st9" x1="236.7" y1="546.7" x2="242.9" y2="550.4"/>
	<line class="st9" x1="242.9" y1="560.7" x2="249.2" y2="564.4"/>
	<line class="st9" x1="249.2" y1="574.7" x2="255.9" y2="578.4"/>
	<line class="st9" x1="255.9" y1="588.7" x2="262.4" y2="592.4"/>
	<line class="st9" x1="262" y1="602.7" x2="268.5" y2="606.4"/>
	<line class="st9" x1="268.5" y1="616.7" x2="275" y2="620.4"/>
</g>
<g id="left_SIde" class="st0">
	<line class="st5" x1="-37.3" y1="161.7" x2="172.6" y2="624.9"/>
	<line id="glass" class="st10" x1="-18.3" y1="162.7" x2="191.6" y2="625.9"/>
	<line class="st11" x1="-57.3" y1="160.7" x2="152.6" y2="623.9"/>
	<line class="st3" x1="-45.3" y1="161.7" x2="164.6" y2="624.9"/>
	<line class="st2" x1="-40.3" y1="160.7" x2="169.6" y2="623.9"/>
	<line class="st12" x1="-87.3" y1="161.7" x2="122.6" y2="624.9"/>
	<line id="left_handrail" class="st4" x1="7.7" y1="161.7" x2="217.6" y2="624.9"/>
	<line id="edge_line" class="st5" x1="-48.3" y1="161.7" x2="161.6" y2="624.9"/>
	<line class="st5" x1="-42.3" y1="161.7" x2="167.6" y2="624.9"/>
	<line id="center_bottom_line" class="st5" x1="-65.3" y1="161.7" x2="144.6" y2="624.9"/>
	<line id="left_bottom_line" class="st5" x1="-108.3" y1="163.7" x2="101.6" y2="626.9"/>
</g>
</svg>
