<?xml version="1.0" encoding="utf-8"?>
<!-- Generator: Adobe Illustrator 19.0.1, SVG Export Plug-In . SVG Version: 6.00 Build 0)  -->
<svg version="1.1" xmlns="http://www.w3.org/2000/svg" xmlns:xlink="http://www.w3.org/1999/xlink" x="0px" y="0px"
	 viewBox="0 0 426.4 426.4" style="enable-background:new 0 0 426.4 426.4;" xml:space="preserve">
<style type="text/css">
	.st0{display:none;}
	.st1{display:inline;fill:#C69C6D;stroke:#C69C6D;stroke-width:5;stroke-miterlimit:10;}
	.st2{display:inline;fill:none;stroke:#CCCCCC;stroke-width:4;stroke-miterlimit:10;}
	.st3{display:inline;fill:none;stroke:#F2F2F2;stroke-width:5;stroke-miterlimit:10;}
	.st4{display:inline;fill:none;stroke:#000000;stroke-width:7;stroke-miterlimit:10;}
	.st5{display:inline;fill:none;stroke:#000000;stroke-miterlimit:10;}
	.st6{display:inline;opacity:0.5;fill:none;stroke:#808080;stroke-width:42;stroke-miterlimit:10;}
	.st7{display:inline;fill:none;stroke:#B3B3B3;stroke-width:120;stroke-miterlimit:10;}
	.st8{display:inline;fill:#E6E6E6;stroke:#000000;stroke-miterlimit:10;}
	.st9{fill:none;stroke:#000000;stroke-miterlimit:10;}
	.st10{opacity:0.5;fill:none;stroke:#808080;stroke-width:42.5;stroke-miterlimit:10;}
	.st11{fill:none;stroke:#666666;stroke-width:15;stroke-miterlimit:10;}
	.st12{fill:none;stroke:#F2F2F2;stroke-width:5;stroke-miterlimit:10;}
	.st13{fill:none;stroke:#CCCCCC;stroke-width:4;stroke-miterlimit:10;}
	.st14{fill:none;stroke:#666666;stroke-width:41;stroke-miterlimit:10;}
	.st15{fill:none;stroke:#000000;stroke-width:7;stroke-miterlimit:10;}
</style>
<g id="Layer_1" class="st0">
	<rect class="st1" width="426.4" height="426.4"/>
</g>
<g id="right_side" class="st0">
	<line id="far_most" class="st2" x1="168.7" y1="-19.9" x2="378.6" y2="443.3"/>
	<line id="right_white" class="st3" x1="167.7" y1="-9.9" x2="377.6" y2="453.3"/>
	<line class="st4" x1="215.7" y1="-20.9" x2="425.6" y2="442.3"/>
	<line class="st5" x1="165.7" y1="-20.9" x2="375.6" y2="442.3"/>
	<line class="st5" x1="170.7" y1="-20.9" x2="380.6" y2="442.3"/>
	<line class="st5" x1="159.7" y1="-20.9" x2="369.6" y2="442.3"/>
	<line id="glass_1_" class="st6" x1="188.7" y1="-20.9" x2="398.6" y2="442.3"/>
</g>
<g id="steps" class="st0">
	<line id="backcolor" class="st7" x1="96.7" y1="-13.9" x2="314.9" y2="467.8"/>
	<rect x="10.7" y="-11.2" class="st8" width="152.6" height="10.3"/>
	<rect x="19.3" y="2.8" class="st8" width="150.1" height="10.3"/>
	<rect x="22.3" y="16.8" class="st8" width="153.5" height="10.3"/>
	<rect x="32.4" y="30.8" class="st8" width="149.9" height="10.3"/>
	<rect x="34.7" y="44.8" class="st8" width="154" height="10.3"/>
	<rect x="43.7" y="58.8" class="st8" width="151.3" height="10.3"/>
	<rect x="49.7" y="72.8" class="st8" width="151.8" height="10.3"/>
	<rect x="54.7" y="86.8" class="st8" width="153.3" height="10.3"/>
	<rect x="65.9" y="100.8" class="st8" width="148.2" height="10.3"/>
	<rect x="69.1" y="114.8" class="st8" width="151.5" height="10.3"/>
	<rect x="72.7" y="128.8" class="st8" width="154.6" height="10.3"/>
	<rect x="81.1" y="142.8" class="st8" width="152.4" height="10.3"/>
	<rect x="87" y="156.8" class="st8" width="152.6" height="10.3"/>
	<rect x="93.3" y="170.8" class="st8" width="152.6" height="10.3"/>
	<rect x="109.8" y="184.8" class="st8" width="142.7" height="10.3"/>
	<rect x="109.8" y="198.8" class="st8" width="148.8" height="10.3"/>
	<rect x="109.8" y="212.8" class="st8" width="154.9" height="10.3"/>
	<rect x="115.6" y="226.8" class="st8" width="156.1" height="10.3"/>
	<rect x="123.1" y="240.8" class="st8" width="154.8" height="10.3"/>
	<rect x="131.3" y="254.8" class="st8" width="152.4" height="10.3"/>
	<rect x="135.8" y="268.8" class="st8" width="154.8" height="10.3"/>
	<rect x="148.4" y="282.8" class="st8" width="148.4" height="10.3"/>
	<rect x="154.8" y="296.8" class="st8" width="148.5" height="10.3"/>
	<rect x="154.6" y="310.8" class="st8" width="155" height="10.3"/>
	<rect x="167.5" y="324.8" class="st8" width="148.5" height="10.3"/>
	<rect x="166.4" y="338.8" class="st8" width="155.9" height="10.3"/>
	<rect x="172.4" y="352.8" class="st8" width="156.3" height="10.3"/>
	<rect x="181.1" y="366.8" class="st8" width="153.9" height="10.3"/>
	<rect x="188.7" y="380.8" class="st8" width="152.6" height="10.3"/>
	<rect x="192.1" y="394.8" class="st8" width="155.7" height="10.3"/>
	<rect x="200.4" y="408.8" class="st8" width="153.6" height="10.3"/>
	<rect x="207.5" y="422.8" class="st8" width="153" height="10.3"/>
	<rect x="209.8" y="436.8" class="st8" width="156.8" height="10.3"/>
	<line class="st8" x1="163.3" y1="-0.9" x2="169.4" y2="2.8"/>
	<line class="st8" x1="169.4" y1="13.1" x2="175.9" y2="16.8"/>
	<line class="st8" x1="175.9" y1="27.1" x2="182.3" y2="30.8"/>
	<line class="st8" x1="182.3" y1="41.1" x2="188.7" y2="44.8"/>
	<line class="st8" x1="188.7" y1="55.1" x2="194.9" y2="58.8"/>
	<line class="st8" x1="194.9" y1="69.1" x2="201.4" y2="72.8"/>
	<line class="st8" x1="201.4" y1="83.1" x2="208" y2="86.8"/>
	<line class="st8" x1="208" y1="97.1" x2="214.1" y2="100.8"/>
	<line class="st8" x1="214.1" y1="111.1" x2="220.6" y2="114.8"/>
	<line class="st8" x1="220.6" y1="125.1" x2="227.3" y2="128.8"/>
	<line class="st8" x1="227.3" y1="139.1" x2="233.6" y2="142.8"/>
	<line class="st8" x1="233.6" y1="153.1" x2="239.5" y2="156.8"/>
	<line class="st8" x1="245.9" y1="181.1" x2="252.4" y2="184.8"/>
	<line class="st8" x1="239.5" y1="167.1" x2="245.9" y2="170.8"/>
	<line class="st8" x1="252.4" y1="195.1" x2="258.5" y2="198.8"/>
	<line class="st8" x1="258.5" y1="209.1" x2="264.6" y2="212.8"/>
	<line class="st8" x1="264.6" y1="223.1" x2="271.7" y2="226.8"/>
	<line class="st8" x1="271.7" y1="237.1" x2="277.8" y2="240.8"/>
	<line class="st8" x1="277.8" y1="251.1" x2="283.7" y2="254.8"/>
	<line class="st8" x1="283.7" y1="265.1" x2="290.5" y2="268.8"/>
	<line class="st8" x1="290.5" y1="279.1" x2="296.8" y2="282.8"/>
	<line class="st8" x1="296.8" y1="293.1" x2="303.2" y2="296.8"/>
	<line class="st8" x1="303.2" y1="307.1" x2="309.6" y2="310.8"/>
	<line class="st8" x1="309.6" y1="321.1" x2="316.3" y2="324.8"/>
	<line class="st8" x1="315.9" y1="335.1" x2="322.3" y2="338.8"/>
	<line class="st8" x1="322.3" y1="349.1" x2="328.7" y2="352.8"/>
	<line class="st8" x1="328.7" y1="363.1" x2="334.9" y2="366.8"/>
	<line class="st8" x1="334.9" y1="377.1" x2="341.2" y2="380.8"/>
	<line class="st8" x1="341.2" y1="391.1" x2="347.9" y2="394.8"/>
	<line class="st8" x1="347.9" y1="405.1" x2="354.4" y2="408.8"/>
	<line class="st8" x1="354" y1="419.1" x2="360.5" y2="422.8"/>
	<line class="st8" x1="360.5" y1="433.1" x2="367" y2="436.8"/>
</g>
<g id="left_SIde">
	<line class="st9" x1="54.7" y1="-21.9" x2="264.6" y2="441.3"/>
	<line id="glass" class="st10" x1="73.7" y1="-20.9" x2="283.6" y2="442.3"/>
	<line class="st11" x1="34.7" y1="-22.9" x2="244.6" y2="440.3"/>
	<line class="st12" x1="46.7" y1="-21.9" x2="256.6" y2="441.3"/>
	<line class="st13" x1="51.7" y1="-22.9" x2="261.6" y2="440.3"/>
	<line class="st14" x1="4.7" y1="-21.9" x2="214.6" y2="441.3"/>
	<line id="left_handrail" class="st15" x1="99.7" y1="-21.9" x2="309.6" y2="441.3"/>
	<line id="edge_line" class="st9" x1="43.7" y1="-21.9" x2="253.6" y2="441.3"/>
	<line class="st9" x1="49.7" y1="-21.9" x2="259.6" y2="441.3"/>
	<line id="center_bottom_line" class="st9" x1="26.7" y1="-21.9" x2="236.6" y2="441.3"/>
	<line id="left_bottom_line" class="st9" x1="-16.3" y1="-19.9" x2="193.6" y2="443.3"/>
</g>
</svg>
