<?xml version="1.0" encoding="utf-8"?>
<!-- Generator: Adobe Illustrator 19.0.1, SVG Export Plug-In . SVG Version: 6.00 Build 0)  -->
<svg version="1.1" xmlns="http://www.w3.org/2000/svg" xmlns:xlink="http://www.w3.org/1999/xlink" x="0px" y="0px"
	 viewBox="0 0 84 162" style="enable-background:new 0 0 84 162;" xml:space="preserve">
<style type="text/css">
	.st0{fill:#C69C6D;stroke:#C69C6D;stroke-width:5;stroke-miterlimit:10;}
	.st1{fill:none;stroke:#CCCCCC;stroke-width:4;stroke-miterlimit:10;}
	.st2{fill:none;stroke:#F2F2F2;stroke-width:5;stroke-miterlimit:10;}
	.st3{fill:none;stroke:#000000;stroke-width:7;stroke-miterlimit:10;}
	.st4{fill:none;stroke:#000000;stroke-miterlimit:10;}
	.st5{opacity:0.5;fill:none;stroke:#808080;stroke-width:42;stroke-miterlimit:10;}
	.st6{fill:none;stroke:#B3B3B3;stroke-width:120;stroke-miterlimit:10;}
	.st7{fill:#E6E6E6;stroke:#000000;stroke-miterlimit:10;}
	.st8{opacity:0.5;fill:none;stroke:#808080;stroke-width:42.5;stroke-miterlimit:10;}
	.st9{fill:none;stroke:#666666;stroke-width:15;stroke-miterlimit:10;}
	.st10{fill:none;stroke:#666666;stroke-width:41;stroke-miterlimit:10;}
	.st11{display:none;}
	.st12{display:inline;fill:#5D5D5D;}
	.st13{display:inline;}
	.st14{fill:#5D5D5D;}
	.st15{fill:#34df56;stroke:#34df56;stroke-width:0.25;stroke-miterlimit:10;}
	.st16{fill:#F2F2F2;stroke:#000000;stroke-width:0.5;stroke-miterlimit:10;}
	.st17{fill:none;stroke:#000000;stroke-width:0.3;stroke-miterlimit:10;}
	.st18{fill:none;stroke:#000000;stroke-width:0.15;stroke-miterlimit:10;}
</style>
<g id="Layer_1">
</g>
<g id="right_side">
</g>
<g id="steps">
</g>
<g id="left_SIde">
</g>
<g id="man_3_">
	<g id="relaxed_man" class="st11">
		<ellipse class="st12" cx="64.9" cy="24.6" rx="11.1" ry="16.6"/>
		<path class="st12" d="M56.5,101.3L56.5,101.3c-6.1-0.3-8.4-7-8-14.2l1.1-43.2c0.4-7.2,4.5-12.1,10.6-11.8h0
			c6.1,0.3,9.4,12.6,9,19.8l-0.8,36.8C67.8,95.9,62.5,101.6,56.5,101.3z"/>
		<path class="st12" d="M42.9,5.7L42.9,5.7c2-0.9,4.4-0.1,5.3,1.9l17.3,37c0.9,2,0.1,4.4-1.9,5.3l0,0c-2,0.9-4.4,0.1-5.3-1.9
			L40.9,11C40,9,40.9,6.6,42.9,5.7z"/>
		<path class="st12" d="M36,117.8L36,117.8c-2.2-1.5-2.7-4.5-1.2-6.7l14.9-21.3c1.5-2.2,4.5-2.7,6.7-1.2l0,0
			c2.2,1.5,2.7,4.5,1.2,6.7l-14.9,21.3C41.2,118.8,38.2,119.3,36,117.8z"/>
		<path class="st12" d="M48.4,132.2L48.4,132.2c-2.3,1.3-5.2,0.4-6.5-1.9l-7.3-13.2c-1.3-2.3-0.4-5.2,1.9-6.5h0
			c2.3-1.3,5.2-0.4,6.5,1.9l7.3,13.2C51.6,128,50.7,130.9,48.4,132.2z"/>
		<path class="st12" d="M55.4,146.5L55.4,146.5c-2.6-0.4-4.4-2.8-4.1-5.4l6.9-49.3c0.4-2.6,2.8-4.4,5.4-4.1h0
			c2.6,0.4,4.4,2.8,4.1,5.4l-6.9,49.3C60.5,145.1,58,146.9,55.4,146.5z"/>
		<path class="st12" d="M81.6,85.6L81.6,85.6c2-0.9,2.9-3.3,2-5.3L66.2,41c-0.9-2-3.3-2.9-5.3-2l0,0c-2,0.9-2.9,3.3-2,5.3l17.5,39.3
			C77.2,85.6,79.6,86.5,81.6,85.6z"/>
	</g>
	<g id="briefcase_man_1_" class="st11">
		<g id="man_2_" class="st13">
			<rect x="44.8" y="100.7" class="st14" width="9.4" height="61.2"/>
			<path class="st14" d="M55.9,112L55.9,112c-6.1,0-11.1-5-11.1-11.1V58.3c0-6.1,5-11.1,11.1-11.1h0c6.1,0,11.1,5,11.1,11.1v42.6
				C67,107,62,112,55.9,112z"/>
			<polygon id="briefcase_1_" points="31.6,97.8 31.6,120.4 39.4,133.8 45.6,134 45.6,111.1 37.3,97.8 			"/>
			<ellipse class="st14" cx="55.9" cy="30.6" rx="11.1" ry="16.6"/>
			<rect x="57.6" y="100.4" class="st14" width="9.4" height="61.6"/>
			<path class="st14" d="M40.8,105L40.8,105c2.2,0.1,4.1-1.7,4.1-3.8l1.7-49.8c0.1-2.2-1.7-4.1-3.8-4.1l0,0
				c-2.2-0.1-4.1,1.7-4.1,3.8l-1.7,49.8C36.9,103,38.6,104.9,40.8,105z"/>
			<path class="st14" d="M74.3,78.9L74.3,78.9c2.2-0.4,3.6-2.5,3.2-4.7l-4.6-23.6c-0.4-2.2-2.5-3.6-4.7-3.2l0,0
				C66,47.9,64.6,50,65,52.1l4.6,23.6C70,77.9,72.1,79.3,74.3,78.9z"/>
			<path id="right_arm" class="st14" d="M72.1,78.6L72.1,78.6c2.1,0.8,4.4-0.2,5.2-2.3l6.5-16.8c0.8-2-0.2-4.4-2.3-5.2l0,0
				c-2-0.8-4.4,0.2-5.2,2.3l-6.5,16.8C69,75.5,70,77.8,72.1,78.6z"/>
			<path class="st14" d="M72.2,53.7v-2.6c0-2.2-1.8-4-4-4H43.4c-2.2,0-4,1.8-4,4v2.6c0,2.2,1.8,4,4,4h24.7
				C70.4,57.7,72.2,55.9,72.2,53.7z"/>
		</g>
	</g>
	<g id="phone_man">
		<path class="st14" d="M67,30.6c0,9.2-5,16.6-11.1,16.6c-6.1,0-11.1-7.4-11.1-16.6c0-9.2,5-16.6,11.1-16.6C62,14,67,21.4,67,30.6z"
			/>
		<path id="phone" class="st15" d="M66.6,42.2L66.6,42.2c-0.5,0-0.8-0.4-0.8-0.9l1.1-16c0-0.5,0.4-0.8,0.9-0.8l0,0
			c0.5,0,0.8,0.4,0.8,0.9l-1.1,16C67.4,41.8,67,42.2,66.6,42.2z"/>
		<rect x="44.8" y="100.7" class="st14" width="9.4" height="61.2"/>
		<path class="st14" d="M55.9,112L55.9,112c-6.1,0-11.1-5-11.1-11.1V58.3c0-6.1,5-11.1,11.1-11.1h0c6.1,0,11.1,5,11.1,11.1v42.6
			C67,107,62,112,55.9,112z"/>
		<rect x="57.6" y="100.4" class="st14" width="9.4" height="61.6"/>
		<path class="st14" d="M40.3,105L40.3,105c2.2,0.1,4.1-1.6,4.2-3.8l2.6-49.8c0.1-2.2-1.6-4.1-3.8-4.2l0,0c-2.2-0.1-4.1,1.6-4.2,3.8
			l-2.6,49.8C36.4,103,38.1,104.8,40.3,105z"/>
		<path class="st14" d="M72.7,70.7L72.7,70.7c2.2-0.4,3.6-2.5,3.2-4.7l-3-15.5c-0.4-2.2-2.5-3.6-4.7-3.2l0,0
			C66,47.9,64.6,50,65,52.1l3,15.5C68.4,69.7,70.5,71.2,72.7,70.7z"/>
		<path class="st14" d="M73.1,70.6L73.1,70.6c2.2-0.3,3.8-2.3,3.5-4.5L73,36.9c-0.3-2.2-2.3-3.7-4.4-3.5l0,0
			c-2.2,0.3-3.7,2.3-3.5,4.4l3.6,29.2C68.9,69.3,70.9,70.9,73.1,70.6z"/>
		<path class="st14" d="M72.2,53.7v-2.6c0-2.2-1.8-4-4-4H43.4c-2.2,0-4,1.8-4,4v2.6c0,2.2,1.8,4,4,4h24.7
			C70.4,57.7,72.2,55.9,72.2,53.7z"/>
	</g>
	<g id="man" class="st11">
		<ellipse class="st12" cx="55.9" cy="30.6" rx="11.1" ry="16.6"/>
		<rect x="44.8" y="100.7" class="st12" width="9.4" height="61.2"/>
		<path class="st12" d="M55.9,112L55.9,112c-6.1,0-11.1-5-11.1-11.1V58.3c0-6.1,5-11.1,11.1-11.1h0c6.1,0,11.1,5,11.1,11.1v42.6
			C67,107,62,112,55.9,112z"/>
		<rect x="57.6" y="100.4" class="st12" width="9.4" height="61.6"/>
		<path class="st12" d="M40.3,105L40.3,105c2.2,0.1,4.1-1.6,4.2-3.8l2.6-49.8c0.1-2.2-1.6-4.1-3.8-4.2l0,0c-2.2-0.1-4.1,1.6-4.2,3.8
			l-2.6,49.8C36.4,103,38.1,104.8,40.3,105z"/>
		<path class="st12" d="M74.3,78.9L74.3,78.9c2.2-0.4,3.6-2.5,3.2-4.7l-4.6-23.6c-0.4-2.2-2.5-3.6-4.7-3.2l0,0
			C66,47.9,64.6,50,65,52.1l4.6,23.6C70,77.9,72.1,79.3,74.3,78.9z"/>
		<path class="st12" d="M72.2,53.7v-2.6c0-2.2-1.8-4-4-4H43.4c-2.2,0-4,1.8-4,4v2.6c0,2.2,1.8,4,4,4h24.7
			C70.4,57.7,72.2,55.9,72.2,53.7z"/>
		<path id="right_arm_1_" class="st12" d="M72.1,78.6L72.1,78.6c2.1,0.8,4.4-0.2,5.2-2.3l6.5-16.8c0.8-2-0.2-4.4-2.3-5.2l0,0
			c-2-0.8-4.4,0.2-5.2,2.3l-6.5,16.8C69,75.5,70,77.8,72.1,78.6z"/>
	</g>
	<g id="newspaper_man" class="st11">
		<g id="newspaper" class="st13">
			<path class="st16" d="M24,35.7l5.4,9.9v5.7l0.2,2.8l0.9,3.4v3.6l1,4.3l1.4,5.8l1.4,4.7l0.8,2.9l2.1-0.2l3.4,0.3h3.1l4.7-1.2
				l2.1,1.2l4.2-1.7l3.5,1.7h3l4-1.7l0.7-0.5l3.2-1.6l-0.9-10.9l2.8-9.5l-1-5.3l-1-5.5l-2.5-12.2l-6.2,0.4l-4,0.7l-3.4,0.2
				c0,0-5.5,0.7-6.2,0.5c-0.7-0.2-7.8-0.5-7.8-0.5l-5.5,2.5l-3.6-0.4L24,35.7z"/>
			<polyline class="st17" points="38.9,39.2 48,39.7 57.1,37.9 			"/>
			<polyline class="st18" points="34.5,44.1 50.6,44.1 63.5,42.1 			"/>
			<polyline class="st18" points="35.2,46.2 51.3,46.2 64.2,44.2 			"/>
			<polyline class="st18" points="34.9,48.3 51,48.3 64.6,46.2 			"/>
			<polyline class="st18" points="35.6,50.4 51.7,50.4 64.6,48.3 			"/>
			<polyline class="st18" points="35.2,52.6 51.4,52.6 65,50.4 			"/>
			<polyline class="st18" points="34.9,54.7 51.1,54.7 65.4,52.6 			"/>
			<polyline class="st18" points="35.6,56.8 51.7,56.8 65.4,54.7 			"/>
			<polyline class="st18" points="35.3,58.9 51.4,58.9 65,56.8 			"/>
			<polyline class="st18" points="35.7,61.1 51.1,61.1 64.7,58.9 			"/>
			<polyline class="st18" points="36.4,63.2 51.8,63.2 65.4,61.1 			"/>
		</g>
		<g id="man_1_" class="st13">
			<path class="st14" d="M62.7,31.8c2.4,8.5-0.6,15.3-6.8,15.3s-13-6.9-15.4-15.3s0.6-15.3,6.8-15.3S60.3,23.4,62.7,31.8z"/>
			<rect x="44.8" y="100.7" class="st14" width="9.4" height="61.2"/>
			<path class="st14" d="M55.9,112L55.9,112c-6.1,0-11.1-5-11.1-11.1V58.3c0-6.1,5-11.1,11.1-11.1h0c6.1,0,11.1,5,11.1,11.1v42.6
				C67,107,62,112,55.9,112z"/>
			<rect x="57.6" y="100.4" class="st14" width="9.4" height="61.6"/>
			<path class="st14" d="M74.3,78.9L74.3,78.9c2.2-0.4,3.6-2.5,3.2-4.7l-4.6-23.6c-0.4-2.2-2.5-3.6-4.7-3.2l0,0
				C66,47.9,64.6,50,65,52.1l4.6,23.6C70,77.9,72.1,79.3,74.3,78.9z"/>
			<path class="st14" d="M73.9,78.7L73.9,78.7c2.2-0.4,3.6-2.5,3.2-4.7l-4.9-25.4c-0.4-2.2-2.5-3.6-4.7-3.2h0
				c-2.2,0.4-3.6,2.5-3.2,4.7l4.9,25.4C69.7,77.7,71.8,79.2,73.9,78.7z"/>
			<path class="st14" d="M72.2,53.7v-2.6c0-2.2-1.8-4-4-4H43.4c-2.2,0-4,1.8-4,4v2.6c0,2.2,1.8,4,4,4h24.7
				C70.4,57.7,72.2,55.9,72.2,53.7z"/>
			<path class="st14" d="M38.7,78.9L38.7,78.9c-2.2-0.4-3.6-2.5-3.2-4.7l4.6-23.6c0.4-2.2,2.5-3.6,4.7-3.2l0,0
				c2.2,0.4,3.6,2.5,3.2,4.7l-4.6,23.6C42.9,77.9,40.8,79.3,38.7,78.9z"/>
			<path class="st14" d="M40.5,79.2L40.5,79.2c-2.1,0.7-4.4-0.4-5.1-2.5L26.6,51C25.9,49,27,46.7,29,46l0,0c2.1-0.7,4.4,0.4,5.1,2.5
				L43,74.1C43.7,76.2,42.6,78.4,40.5,79.2z"/>
		</g>
	</g>
</g>
</svg>
